<svg height="512pt" viewBox="-51 0 512 512" width="512pt" xmlns="http://www.w3.org/2000/svg"><path d="m108.96875 412.8125s-57.996094 20.671875-57.996094 91.6875h308.738282c0-71.015625-57.996094-91.6875-57.996094-91.6875zm0 0" fill="#a78bd6"/><path d="m20 240.292969c0-100.242188 83.144531-181.792969 185.339844-181.792969 102.199218 0 185.34375 81.550781 185.34375 181.792969zm0 0" fill="#41476b"/><path d="m345.921875 112.128906-6.269531-29.679687c-7.988282-37.804688-38.890625-66.621094-77.207032-71.597657-15.582031-2.023437-34.4375-3.351562-57.101562-3.351562s-41.523438 1.328125-57.105469 3.351562c-38.3125 4.980469-69.21875 33.792969-77.207031 71.597657l-5.773438 29.679687zm0 0" fill="#a78bd6"/><path d="m188.238281 10.851562c10.75-1.398437 23.0625-2.460937 37.101563-2.988281-6.308594-.234375-12.972656-.363281-19.996094-.363281-22.664062 0-41.523438 1.328125-57.105469 3.351562-38.3125 4.980469-69.21875 33.792969-77.207031 71.597657l-5.773438 29.679687h40l5.773438-29.679687c7.984375-37.804688 38.890625-66.621094 77.207031-71.597657zm0 0" fill="#8363ba"/><path d="m403.183594 240.292969c0 20.675781-16.761719 37.4375-37.4375 37.4375-20.675782 0-37.4375-16.761719-37.4375-37.4375s16.761718-37.4375 37.4375-37.4375c20.675781 0 37.4375 16.761719 37.4375 37.4375zm0 0" fill="#fecfc3"/><path d="m365.742188 240.289062c0-86.632812-71.8125-156.855468-160.398438-156.855468-88.589844 0-160.402344 70.222656-160.402344 156.855468 0 86.632813 71.8125 156.859376 160.402344 156.859376 88.585938 0 160.398438-70.226563 160.398438-156.859376zm0 0" fill="#fee2da"/><path d="m74.941406 240.289062c0-81.683593 63.847656-148.769531 145.402344-156.167968-4.941406-.445313-9.941406-.6875-15-.6875-75.515625 0-138.828125 51.03125-155.875 119.753906-1.371094-.210938-2.867188-.332031-4.53125-.332031-20.675781 0-37.4375 16.761719-37.4375 37.4375s16.761719 37.4375 37.4375 37.4375c1.664062 0 3.160156-.121094 4.53125-.332031 17.046875 68.71875 80.359375 119.75 155.871094 119.75 5.058594 0 10.0625-.242188 15-.6875-81.550782-7.398438-145.398438-74.484376-145.398438-156.171876zm0 0" fill="#fecfc3"/><path d="m71.445312 171.371094c-6.90625 0-13.816406-2.589844-19.152343-7.792969-10.84375-10.578125-11.0625-27.945313-.484375-38.792969 19.667968-20.164062 42.789062-36.027344 68.714844-47.148437 26.839843-11.507813 55.375-17.34375 84.820312-17.34375 29.441406 0 57.976562 5.835937 84.8125 17.34375 25.933594 11.121093 49.050781 26.980469 68.71875 47.148437 10.574219 10.84375 10.359375 28.210938-.484375 38.789063-10.851563 10.578125-28.214844 10.363281-38.792969-.484375-30.148437-30.910156-70.726562-47.933594-114.253906-47.933594-43.535156 0-84.109375 17.023438-114.257812 47.9375-5.375 5.511719-12.507813 8.277344-19.640626 8.277344zm0 0" fill="#fdb76b"/><path d="m298.902344 279.75h-21.878906c-4.140626 0-7.5-3.359375-7.5-7.5 0-4.144531 3.359374-7.5 7.5-7.5h21.878906c4.144531 0 7.5 3.355469 7.5 7.5 0 4.140625-3.355469 7.5-7.5 7.5zm0 0" fill="#f98084"/><path d="m133.660156 279.75h-21.878906c-4.144531 0-7.5-3.359375-7.5-7.5 0-4.144531 3.355469-7.5 7.5-7.5h21.878906c4.140625 0 7.5 3.355469 7.5 7.5 0 4.140625-3.359375 7.5-7.5 7.5zm0 0" fill="#f98084"/><path d="m271.3125 342.621094h-131.945312c-16.789063 0-30.398438 13.609375-30.398438 30.398437v131.480469h192.746094v-131.480469c0-16.789062-13.609375-30.398437-30.402344-30.398437zm0 0" fill="#fedd60"/><path d="m169.367188 342.621094h-30c-16.789063 0-30.398438 13.609375-30.398438 30.398437v131.480469h30v-131.480469c0-16.789062 13.609375-30.398437 30.398438-30.398437zm0 0" fill="#fecc2e"/><path d="m244.851562 374.425781h-79.019531c-6.328125 0-11.460937 5.128907-11.460937 11.460938v35.453125c0 6.328125 5.128906 11.460937 11.460937 11.460937h79.019531c6.328126 0 11.460938-5.132812 11.460938-11.460937v-35.453125c0-6.332031-5.128906-11.460938-11.460938-11.460938zm0 0" fill="#efedee"/><path d="m166.332031 504.5c0-22.003906-17.835937-39.84375-39.84375-39.84375-22.003906 0-39.839843 17.839844-39.839843 39.84375zm0 0" fill="#fee1d8"/><path d="m244.351562 504.5c0-22.003906 17.835938-39.84375 39.839844-39.84375s39.84375 17.839844 39.84375 39.84375zm0 0" fill="#fee1d8"/><path d="m287.964844 256.136719c4.140625 0 7.5-3.359375 7.5-7.5v-16.066407c0-4.140624-3.359375-7.5-7.5-7.5-4.144532 0-7.5 3.359376-7.5 7.5v16.066407c0 4.140625 3.355468 7.5 7.5 7.5zm0 0"/><path d="m122.71875 256.136719c4.144531 0 7.5-3.359375 7.5-7.5v-16.066407c0-4.140624-3.355469-7.5-7.5-7.5-4.140625 0-7.5 3.359376-7.5 7.5v16.066407c0 4.140625 3.359375 7.5 7.5 7.5zm0 0"/><path d="m205.34375 278.84375c7.921875 0 15.367188-3.320312 20.421875-9.105469 2.726563-3.117187 2.410156-7.855469-.710937-10.582031-3.117188-2.726562-7.855469-2.410156-10.582032.710938-2.207031 2.523437-5.535156 3.972656-9.128906 3.972656-3.597656 0-6.925781-1.445313-9.132812-3.972656-2.726563-3.117188-7.464844-3.4375-10.582032-.710938-3.117187 2.726562-3.4375 7.464844-.710937 10.582031 5.054687 5.785157 12.5 9.105469 20.425781 9.105469zm0 0"/><path d="m263.8125 421.339844v-35.457032c0-10.453124-8.503906-18.957031-18.960938-18.957031h-79.019531c-10.457031 0-18.960937 8.503907-18.960937 18.957031v35.457032c0 10.453125 8.503906 18.957031 18.960937 18.957031h79.019531c10.457032.003906 18.960938-8.503906 18.960938-18.957031zm-15 0c0 2.183594-1.777344 3.957031-3.960938 3.957031h-79.019531c-2.183593 0-3.960937-1.773437-3.960937-3.957031v-35.457032c0-2.183593 1.777344-3.957031 3.960937-3.957031h79.019531c2.183594 0 3.960938 1.773438 3.960938 3.957031zm0 0"/><path d="m233.6875 396.113281h-56.691406c-4.140625 0-7.5 3.355469-7.5 7.5 0 4.140625 3.359375 7.5 7.5 7.5h56.691406c4.140625 0 7.5-3.359375 7.5-7.5 0-4.144531-3.359375-7.5-7.5-7.5zm0 0"/><path d="m359.710938 512c4.140624 0 7.5-3.359375 7.5-7.5 0-39.3125-17.011719-64.039062-31.28125-77.863281-10.378907-10.054688-20.78125-15.902344-26.714844-18.742188v-34.875c0-1.171875-.0625-2.328125-.167969-3.472656 18.945313-14.59375 34.679687-33.234375 45.679687-54.160156 5.125-9.746094 9.179688-19.828125 12.183594-30.1875 24.242188-.621094 43.773438-20.519531 43.773438-44.90625 0-13.597657-6.078125-25.792969-15.652344-34.042969-3.773438-20.328125-10.886719-39.769531-21.171875-57.867188 1.296875-10.21875-1.886719-20.910156-9.617187-28.835937-3.671876-3.765625-7.472657-7.378906-11.378907-10.855469l-5.875-27.792968c-8.65625-40.976563-42.242187-72.113282-83.578125-77.484376-17.433594-2.265624-36.972656-3.414062-58.066406-3.414062-21.097656 0-40.632812 1.148438-58.070312 3.414062-13.34375 1.734376-25.988282 6.121094-37.578126 13.046876-3.554687 2.125-4.714843 6.726562-2.59375 10.285156 2.125 3.554687 6.730469 4.714844 10.285157 2.59375 9.820312-5.867188 20.523437-9.582032 31.820312-11.050782 16.796875-2.183593 35.683594-3.289062 56.136719-3.289062 20.449219 0 39.335938 1.105469 56.132812 3.289062 35.03125 4.550782 63.496094 30.957032 70.835938 65.707032l2.109375 9.976562c-9.402344-6.699218-19.316406-12.667968-29.644531-17.824218-3.707032-1.847657-8.210938-.34375-10.058594 3.363281-1.828125 3.660156-.304688 8.246093 3.359375 10.074219 20.558594 10.246093 39.386719 23.992187 55.425781 40.433593 7.5 7.691407 7.4375 20.707031-.351562 28.1875-.011719.011719-.027344.019531-.039063.03125-7.761719 7.527344-20.601562 7.355469-28.148437-.382812-31.570313-32.371094-74.054688-50.199219-119.625-50.199219-32.683594 0-65.066406 9.484375-92.324219 27.574219-9.769531 6.480469-18.921875 14.035156-27.300781 22.625-7.484375 7.675781-20.410156 7.9375-28.1875.351562-7.664063-7.476562-7.824219-20.519531-.351563-28.183593 38.605469-39.589844 92.582031-62.230469 148.167969-62.230469 22.695312 0 44.980469 3.625 66.226562 10.773437 3.878907 1.304688 8.199219-.84375 9.5-4.714844 1.304688-3.875-.839843-8.195312-4.714843-9.5-22.835938-7.6875-46.925781-11.558593-71.011719-11.558593-30.464844 0-59.996094 6.039062-87.773438 17.949219-14.394531 6.171874-28.296874 13.960937-41.113281 23.085937l1.925781-9.886719c2.882813-13.605468 9.164063-26.390625 18.167969-36.976562 2.683594-3.15625 2.300781-7.890625-.855469-10.574219-3.152343-2.679687-7.886718-2.300781-10.570312.855469-10.628906 12.496094-18.039062 27.589844-21.433594 43.652344-.007812.039062-.015625.078124-.023437.117187l-5.28125 27.15625c-4.105469 3.632813-8.089844 7.421875-11.945313 11.375-6.515625 6.679687-10.039062 15.5-9.921875 24.828125.015625 1.359375.121094 2.707031.289063 4.039062-10.277344 18.089844-17.386719 37.519532-21.160156 57.839844-9.570313 8.246094-15.648438 20.441406-15.648438 34.039063 0 24.386719 19.53125 44.285156 43.773438 44.90625 3.003906 10.359375 7.058593 20.441406 12.183593 30.1875 11 20.925781 26.738281 39.566406 45.679688 54.160156-.105469 1.144531-.167969 2.300781-.167969 3.472656v34.875c-5.933594 2.839844-16.335938 8.691407-26.714844 18.742188-14.269531 13.824219-31.28125 38.554687-31.28125 77.863281 0 4.140625 3.359375 7.5 7.5 7.5zm19.058593-298.648438c10.226563 4.9375 16.914063 15.582032 16.914063 26.941407 0 14.871093-10.898438 27.242187-25.125 29.550781 1.070312-5.804688 1.808594-11.6875 2.238281-17.636719.992187-13.765625.273437-27.832031-2.25-41.46875.121094.023438.242187.046875.359375.066407 2.714844.484374 5.375 1.34375 7.863281 2.546874zm-19.558593-40.753906c2.589843-1.804687 4.925781-3.96875 6.941406-6.398437.027344-.035157.058594-.066407.085937-.097657 4.785157 9.917969 8.582031 20.21875 11.363281 30.824219-2.484374-.671875-5.042968-1.121093-7.601562-1.363281-.316406-.03125-3.070312-.074219-3.101562-.191406-2.171876-7.480469-4.902344-14.816406-8.179688-21.992188-.054688-.113281-.097656-.230468-.148438-.34375.214844-.140625.429688-.289062.640626-.4375zm-279.480469 324.402344h-21.023438c1.5-23.753906 10.238281-43.625 26.027344-59.144531 5.9375-5.832031 11.929687-10.050781 16.734375-12.929688v39.375c-11.75 7.285157-19.605469 19.160157-21.738281 32.699219zm15.300781 0c.027344-.113281.054688-.226562.082031-.339844 3.507813-14.214844 16.773438-24.476562 31.378907-24.503906h.03125c14.742187.003906 28.011718 10.503906 31.421874 24.84375zm156.125-26.371094c-7.226562 7.050782-12.117188 16.394532-13.710938 26.371094h-64.207031c-1.746093-10.945312-7.519531-21.136719-15.898437-28.371094-10.269532-8.871094-24.199219-12.898437-37.625-10.980468-1.085938.15625-2.167969.335937-3.246094.566406 0 0 0-85.179688 0-85.195313 0-12.425781 10.472656-22.898437 22.898438-22.898437h131.949218c12.355469 0 22.898438 10.554687 22.898438 22.898437v85.195313c-3.296875-.707032-6.648438-1.058594-10.023438-1.058594-12.179687 0-24.269531 4.917969-33.035156 13.472656zm58.058594-45.703125c4.804687 2.878907 10.796875 7.097657 16.734375 12.929688 15.792969 15.519531 24.527343 35.390625 26.027343 59.144531h-21.023437c-2.132813-13.539062-9.984375-25.414062-21.738281-32.699219zm6.363281 71.769531c.027344.101563.054687.203126.078125.304688h-62.917969c.070313-.292969.140625-.582031.21875-.871094 3.730469-13.894531 16.820313-23.972656 31.203125-23.972656h.054688c14.6875.234375 27.792968 10.1875 31.363281 24.539062zm-263.007813-260.757812c.28125-10.433594 1.667969-20.839844 4.1875-30.988281 2.042969-8.222657 4.816407-16.289063 8.273438-24.070313.015625-.03125.753906-1.640625 1.113281-2.410156.800781.121094 1.613281.210938 2.425781.273438 10.328126.835937 20.648438-2.996094 27.882813-10.414063 9.875-10.125 20.925781-18.6875 32.859375-25.5625 22.785156-13.125 48.800781-20.109375 76.03125-20.109375 14.261719 0 28.191406 1.917969 41.496094 5.628906 25.402344 7.085938 48.539062 20.714844 67.386718 40.039063 6.628907 6.796875 15.507813 10.539062 25 10.539062 1.621094 0 3.25-.128906 4.855469-.351562.148438-.023438.304688-.03125.453125-.050781.355469.757812 1.09375 2.367187 1.113282 2.410156 3.449218 7.765625 6.21875 15.816406 8.277343 24.074218 8.609375 34.617188 4.113281 71.898438-12.476562 103.460938-9.144531 17.402344-21.90625 33.070312-37.210938 45.78125-5.535156-9.757812-15.167969-16.570312-26.402343-18.496094-2.15625-.367187-4.332032-.570312-6.523438-.570312h-131.945312c-2.183594 0-4.367188.203125-6.519532.570312-11.234375 1.925782-20.871094 8.742188-26.40625 18.496094-34.925781-29.007812-55.097656-72.792969-53.871094-118.25zm-8.125-69.835938c.023438.03125.050782.0625.078126.09375.304687.363282.617187.722657.9375 1.078126 1.964843 2.183593 4.203124 4.140624 6.652343 5.765624-.050781.109376-.09375.21875-.144531.328126-3.28125 7.179687-6.007812 14.519531-8.183594 22.003906-.167968.003906-.332031.019531-.496094.027344-3.417968.121093-6.886718.621093-10.207031 1.527343 2.777344-10.605469 6.574219-20.90625 11.363281-30.824219zm-16.828124 49.792969c3.609374-2.570312 7.792968-4.335937 12.160156-5.085937.121094-.023438.238281-.046875.359375-.066406-1.082031 5.851562-1.832031 11.777343-2.257813 17.773437-.988281 13.800781-.265625 27.71875 2.246094 41.328125-14.226562-2.308594-25.125-14.679688-25.125-29.550781 0-10.058594 4.988281-18.964844 12.617188-24.398438zm0 0"/></svg>