<?xml version="1.0" encoding="iso-8859-1"?>
<!-- Generator: Adobe Illustrator 19.0.0, SVG Export Plug-In . SVG Version: 6.00 Build 0)  -->
<svg version="1.1" id="Capa_1" xmlns="http://www.w3.org/2000/svg" xmlns:xlink="http://www.w3.org/1999/xlink" x="0px" y="0px"
	 viewBox="0 0 511.99 511.99" style="enable-background:new 0 0 511.99 511.99;" xml:space="preserve">
<path id="SVGCleanerId_0" d="M213.331,170.688c-4.71,0-8.533,3.823-8.533,8.533v9.301c0,4.71,3.823,8.533,8.533,8.533
	s8.533-3.823,8.533-8.533v-9.301C221.864,174.502,218.041,170.688,213.331,170.688z"/>
<path id="SVGCleanerId_1" d="M298.659,197.054c4.71,0,8.533-3.823,8.533-8.533v-9.301c0-4.71-3.823-8.533-8.533-8.533
	c-4.71,0-8.533,3.823-8.533,8.533v9.301C290.126,193.231,293.949,197.054,298.659,197.054z"/>
<path id="SVGCleanerId_2" d="M258.785,219.666c3.49,3.174,8.883,2.918,12.057-0.572c3.174-3.49,2.918-8.883-0.572-12.057
	l-5.743-5.222v-14.062c0-4.71-3.823-8.533-8.533-8.533s-8.533,3.823-8.533,8.533v17.833c0,2.406,1.015,4.693,2.79,6.314
	L258.785,219.666z"/>
<path id="SVGCleanerId_3" d="M288.496,234.743c-2.688-3.729-7.85-4.659-11.673-2.099c-12.407,8.362-28.602,8.507-41.154,0.367l0,0
	l-5.273,6.707l-4.693,7.125c8.908,5.973,19.386,9.164,30.112,9.173c11.058-0.034,21.852-3.362,31.017-9.548
	C290.45,243.643,291.184,238.463,288.496,234.743z"/>
<path id="SVGCleanerId_4" d="M383.986,324.277h-76.795v-39.456c23.704-13.755,40.923-36.418,47.826-62.938h11.903
	c14.139,0,25.598-11.46,25.598-25.598v-8.533c0-14.139-11.46-25.598-25.598-25.598h-8.533v-31.29
	c-0.051-0.41-0.128-0.811-0.247-1.203c0.137-0.538,0.222-1.084,0.247-1.638v-8.533c-0.06-56.521-45.872-102.333-102.393-102.393
	h-8.533c-8.516,0.026-16.989,1.212-25.189,3.533C207.776-0.821,178.628-6.452,157.185,8.045S130.102,51.69,144.6,73.133
	c3.345,4.949,7.611,9.215,12.552,12.56c-2.329,8.217-3.524,16.716-3.55,25.257v51.197h-8.533c-14.139,0-25.598,11.46-25.598,25.598
	v8.533c0,14.139,11.46,25.598,25.598,25.598h11.946c6.886,26.52,24.097,49.174,47.783,62.938v39.456h-76.795
	c-47.101,0.051-85.276,38.227-85.328,85.328v93.86c0,4.71,3.823,8.533,8.533,8.533h409.573c4.71,0,8.533-3.823,8.533-8.533v-93.86
	C469.263,362.496,431.087,324.329,383.986,324.277z M358.388,196.286V179.22h8.533c4.71,0,8.533,3.823,8.533,8.533v8.533
	c0,4.71-3.823,8.533-8.533,8.533h-8.533V196.286z M153.602,196.286v8.533h-8.533c-4.71,0-8.533-3.823-8.533-8.533v-8.533
	c0-4.71,3.823-8.533,8.533-8.533h8.533V196.286z M119.471,494.933H59.741v-17.066h59.729V494.933z M128.003,418.138v15.052
	l-0.904,1.8c-4.027,8.089-6.596,16.827-7.577,25.812H59.741v-51.197c0.043-37.681,30.581-68.219,68.262-68.262V418.138z
	 M358.388,341.343h17.066v68.262h-17.066V341.343z M247.462,34.163h8.533c47.101,0.051,85.276,38.227,85.328,85.328v2.91
	l-10.905,4.676c-25.376,10.896-54.26,10.043-78.954-2.321l-42.852-21.434c-1.186-0.589-2.492-0.896-3.814-0.896
	c-2.261,0-4.437,0.896-6.033,2.5l-28.098,28.098v-22.066C170.718,68.568,205.071,34.215,247.462,34.163z M153.602,46.963
	c0.034-16.494,13.431-29.839,29.924-29.805c8.439,0.017,16.477,3.601,22.125,9.872c-18.209,9.122-32.979,23.9-42.092,42.118
	C157.254,63.491,153.627,55.436,153.602,46.963z M170.667,196.286v-39.131l35.838-35.838l37.356,18.678
	c29.182,14.617,63.322,15.615,93.306,2.739l4.181-1.8v55.352c0,47.126-38.201,85.328-85.328,85.328s-85.328-38.201-85.328-85.328
	L170.667,196.286L170.667,196.286z M255.995,348.109l-34.131-23.038v-32.365c22.057,7.961,46.205,7.961,68.262,0v32.365
	L255.995,348.109z M290.126,347.879v21.059l-17.543-10.529L290.126,347.879z M239.407,358.409l-17.543,10.529v-21.059
	L239.407,358.409z M179.2,341.343h25.598v42.664c0,4.71,3.823,8.533,8.533,8.533c1.544,0,3.063-0.418,4.394-1.22l38.269-22.962
	l38.269,22.962c4.036,2.423,9.284,1.118,11.707-2.918c0.794-1.323,1.22-2.841,1.22-4.394v-42.664h34.131v68.262H179.2L179.2,341.343
	L179.2,341.343z M145.069,341.343h17.066v68.262h-17.066V341.343z M290.126,494.933h-68.262v-34.131h68.262V494.933z M378.5,494.933
	h-71.308v-42.664c0-4.71-3.823-8.533-8.533-8.533h-85.328c-4.71,0-8.533,3.823-8.533,8.533v42.664h-62.904
	c-2.773-5.811-4.582-12.04-5.359-18.439v-7.159c-0.051-0.58-0.171-1.152-0.341-1.707c0.205-8.686,2.312-17.219,6.169-25.001
	l1.8-3.601c0.597-1.186,0.904-2.492,0.904-3.823v-8.533h230.606l-0.222,8.311c-0.026,1.34,0.265,2.671,0.853,3.874l1.707,3.601
	C385.744,459.052,385.923,478.191,378.5,494.933z M452.248,494.933h-51.197v-17.066h51.197V494.933z M452.248,460.802h-51.7
	c-0.922-8.891-3.336-17.56-7.142-25.65l-0.853-1.758l0.393-15.035c-0.017-0.87-0.162-1.732-0.444-2.56v-73.868
	c34.105,4.318,59.687,33.295,59.746,67.673L452.248,460.802L452.248,460.802z"/>
<path style="fill:#3B869E;" d="M128.003,332.81h255.983c42.416,0,76.795,34.378,76.795,76.795v93.86l0,0H51.209l0,0v-93.86
	C51.209,367.189,85.587,332.81,128.003,332.81z"/>
<g>
	<rect x="51.191" y="469.3" style="fill:#F9D7C0;" width="85.328" height="34.131"/>
	<rect x="383.969" y="469.3" style="fill:#F9D7C0;" width="76.795" height="34.131"/>
</g>
<g>
	<rect x="136.519" y="332.776" style="fill:#EBEBEB;" width="34.131" height="93.86"/>
	<rect x="349.838" y="332.776" style="fill:#EBEBEB;" width="34.131" height="93.86"/>
</g>
<polygon style="fill:#F9D7C0;" points="298.659,273.081 298.659,341.343 255.995,358.409 213.331,341.343 213.331,273.081 "/>
<g>
	<rect x="213.314" y="273.047" style="fill:#FDC9A6;" width="85.328" height="34.131"/>
	<path style="fill:#FDC9A6;" d="M145.069,213.352H179.2v-42.664h-34.131c-9.429,0-17.066,7.637-17.066,17.066v8.533
		C128.003,205.706,135.64,213.352,145.069,213.352z"/>
	<path style="fill:#FDC9A6;" d="M366.921,213.352h-25.598v-42.664h25.598c9.429,0,17.066,7.637,17.066,17.066v8.533
		C383.986,205.706,376.341,213.352,366.921,213.352z"/>
</g>
<path style="fill:#F9D7C0;" d="M162.135,110.958v85.328c0,51.837,42.024,93.86,93.86,93.86l0,0c51.837,0,93.86-42.024,93.86-93.86
	v-85.328L162.135,110.958L162.135,110.958z"/>
<path style="fill:#8F563B;" d="M255.816,256.015c-10.726,0-21.204-3.191-30.112-9.156l4.693-7.142l5.239-6.741l0,0
	c12.552,8.14,28.747,7.995,41.154-0.367c3.925-2.611,9.215-1.553,11.835,2.364c2.474,3.703,1.672,8.686-1.826,11.442
	C277.651,252.611,266.866,255.956,255.816,256.015z"/>
<circle style="fill:#533222;" cx="183.466" cy="46.963" r="38.397"/>
<g>
	<path style="fill:#8F563B;" d="M213.331,197.054c-4.71,0-8.533-3.823-8.533-8.533v-9.301c0-4.71,3.823-8.533,8.533-8.533
		s8.533,3.823,8.533,8.533v9.301C221.864,193.231,218.041,197.054,213.331,197.054z"/>
	<path style="fill:#8F563B;" d="M298.659,197.054c-4.71,0-8.533-3.823-8.533-8.533v-9.301c0-4.71,3.823-8.533,8.533-8.533
		c4.71,0,8.533,3.823,8.533,8.533v9.301C307.191,193.231,303.369,197.054,298.659,197.054z"/>
	<path style="fill:#8F563B;" d="M264.528,221.884c-2.125,0-4.173-0.794-5.743-2.219l-8.533-7.765
		c-1.775-1.621-2.79-3.908-2.79-6.314v-17.833c0-4.71,3.823-8.533,8.533-8.533s8.533,3.823,8.533,8.533v14.062l5.743,5.222
		c3.49,3.166,3.746,8.567,0.572,12.057C269.229,220.869,266.934,221.884,264.528,221.884z"/>
</g>
<path style="fill:#744630;" d="M349.855,128.024l-16.076,6.894c-27.689,11.861-59.192,10.922-86.13-2.56l-42.852-21.4
	l-42.664,42.664v-42.664c0-47.126,38.201-85.328,85.328-85.328h8.533c51.837,0,93.86,42.024,93.86,93.86V128.024z"/>
<g>
	<polyline style="fill:#EAEAE8;" points="298.659,375.474 298.659,332.81 255.995,358.409 298.659,384.007 298.659,375.474 	"/>
	<polygon style="fill:#EAEAE8;" points="213.331,332.81 255.995,358.409 213.331,384.007 	"/>
</g>
<path style="fill:#DBDBDB;" d="M136.536,503.466l-1.8-3.601c-9.608-19.216-9.608-41.836,0-61.052l1.8-3.609v-17.066h247.902
	l-0.452,17.066l1.707,3.609c9.104,19.335,9.104,41.717,0,61.052l-1.707,3.601"/>
<rect x="213.314" y="452.235" style="fill:#EBEBEB;" width="85.328" height="51.197"/>
<g>
	<path id="SVGCleanerId_0_1_" d="M213.331,170.688c-4.71,0-8.533,3.823-8.533,8.533v9.301c0,4.71,3.823,8.533,8.533,8.533
		s8.533-3.823,8.533-8.533v-9.301C221.864,174.502,218.041,170.688,213.331,170.688z"/>
</g>
<g>
	<path id="SVGCleanerId_1_1_" d="M298.659,197.054c4.71,0,8.533-3.823,8.533-8.533v-9.301c0-4.71-3.823-8.533-8.533-8.533
		c-4.71,0-8.533,3.823-8.533,8.533v9.301C290.126,193.231,293.949,197.054,298.659,197.054z"/>
</g>
<g>
	<path id="SVGCleanerId_2_1_" d="M258.785,219.666c3.49,3.174,8.883,2.918,12.057-0.572c3.174-3.49,2.918-8.883-0.572-12.057
		l-5.743-5.222v-14.062c0-4.71-3.823-8.533-8.533-8.533s-8.533,3.823-8.533,8.533v17.833c0,2.406,1.015,4.693,2.79,6.314
		L258.785,219.666z"/>
</g>
<g>
	<path id="SVGCleanerId_3_1_" d="M288.496,234.743c-2.688-3.729-7.85-4.659-11.673-2.099c-12.407,8.362-28.602,8.507-41.154,0.367
		l0,0l-5.273,6.707l-4.693,7.125c8.908,5.973,19.386,9.164,30.112,9.173c11.058-0.034,21.852-3.362,31.017-9.548
		C290.45,243.643,291.184,238.463,288.496,234.743z"/>
</g>
<g>
	<path id="SVGCleanerId_4_1_" d="M383.986,324.277h-76.795v-39.456c23.704-13.755,40.923-36.418,47.826-62.938h11.903
		c14.139,0,25.598-11.46,25.598-25.598v-8.533c0-14.139-11.46-25.598-25.598-25.598h-8.533v-31.29
		c-0.051-0.41-0.128-0.811-0.247-1.203c0.137-0.538,0.222-1.084,0.247-1.638v-8.533c-0.06-56.521-45.872-102.333-102.393-102.393
		h-8.533c-8.516,0.026-16.989,1.212-25.189,3.533C207.776-0.821,178.628-6.452,157.185,8.045S130.102,51.69,144.6,73.133
		c3.345,4.949,7.611,9.215,12.552,12.56c-2.329,8.217-3.524,16.716-3.55,25.257v51.197h-8.533c-14.139,0-25.598,11.46-25.598,25.598
		v8.533c0,14.139,11.46,25.598,25.598,25.598h11.946c6.886,26.52,24.097,49.174,47.783,62.938v39.456h-76.795
		c-47.101,0.051-85.276,38.227-85.328,85.328v93.86c0,4.71,3.823,8.533,8.533,8.533h409.573c4.71,0,8.533-3.823,8.533-8.533v-93.86
		C469.263,362.496,431.087,324.329,383.986,324.277z M358.388,196.286V179.22h8.533c4.71,0,8.533,3.823,8.533,8.533v8.533
		c0,4.71-3.823,8.533-8.533,8.533h-8.533V196.286z M153.602,196.286v8.533h-8.533c-4.71,0-8.533-3.823-8.533-8.533v-8.533
		c0-4.71,3.823-8.533,8.533-8.533h8.533V196.286z M119.471,494.933H59.741v-17.066h59.729V494.933z M128.003,418.138v15.052
		l-0.904,1.8c-4.027,8.089-6.596,16.827-7.577,25.812H59.741v-51.197c0.043-37.681,30.581-68.219,68.262-68.262V418.138z
		 M358.388,341.343h17.066v68.262h-17.066V341.343z M247.462,34.163h8.533c47.101,0.051,85.276,38.227,85.328,85.328v2.91
		l-10.905,4.676c-25.376,10.896-54.26,10.043-78.954-2.321l-42.852-21.434c-1.186-0.589-2.492-0.896-3.814-0.896
		c-2.261,0-4.437,0.896-6.033,2.5l-28.098,28.098v-22.066C170.718,68.568,205.071,34.215,247.462,34.163z M153.602,46.963
		c0.034-16.494,13.431-29.839,29.924-29.805c8.439,0.017,16.477,3.601,22.125,9.872c-18.209,9.122-32.979,23.9-42.092,42.118
		C157.254,63.491,153.627,55.436,153.602,46.963z M170.667,196.286v-39.131l35.838-35.838l37.356,18.678
		c29.182,14.617,63.322,15.615,93.306,2.739l4.181-1.8v55.352c0,47.126-38.201,85.328-85.328,85.328s-85.328-38.201-85.328-85.328
		L170.667,196.286L170.667,196.286z M255.995,348.109l-34.131-23.038v-32.365c22.057,7.961,46.205,7.961,68.262,0v32.365
		L255.995,348.109z M290.126,347.879v21.059l-17.543-10.529L290.126,347.879z M239.407,358.409l-17.543,10.529v-21.059
		L239.407,358.409z M179.2,341.343h25.598v42.664c0,4.71,3.823,8.533,8.533,8.533c1.544,0,3.063-0.418,4.394-1.22l38.269-22.962
		l38.269,22.962c4.036,2.423,9.284,1.118,11.707-2.918c0.794-1.323,1.22-2.841,1.22-4.394v-42.664h34.131v68.262H179.2
		L179.2,341.343L179.2,341.343z M145.069,341.343h17.066v68.262h-17.066V341.343z M290.126,494.933h-68.262v-34.131h68.262V494.933z
		 M378.5,494.933h-71.308v-42.664c0-4.71-3.823-8.533-8.533-8.533h-85.328c-4.71,0-8.533,3.823-8.533,8.533v42.664h-62.904
		c-2.773-5.811-4.582-12.04-5.359-18.439v-7.159c-0.051-0.58-0.171-1.152-0.341-1.707c0.205-8.686,2.312-17.219,6.169-25.001
		l1.8-3.601c0.597-1.186,0.904-2.492,0.904-3.823v-8.533h230.606l-0.222,8.311c-0.026,1.34,0.265,2.671,0.853,3.874l1.707,3.601
		C385.744,459.052,385.923,478.191,378.5,494.933z M452.248,494.933h-51.197v-17.066h51.197V494.933z M452.248,460.802h-51.7
		c-0.922-8.891-3.336-17.56-7.142-25.65l-0.853-1.758l0.393-15.035c-0.017-0.87-0.162-1.732-0.444-2.56v-73.868
		c34.105,4.318,59.687,33.295,59.746,67.673L452.248,460.802L452.248,460.802z"/>
</g>
<g>
</g>
<g>
</g>
<g>
</g>
<g>
</g>
<g>
</g>
<g>
</g>
<g>
</g>
<g>
</g>
<g>
</g>
<g>
</g>
<g>
</g>
<g>
</g>
<g>
</g>
<g>
</g>
<g>
</g>
</svg>
