<svg id="Layer_1" enable-background="new 0 0 512 512" height="512" viewBox="0 0 512 512" width="512" xmlns="http://www.w3.org/2000/svg"><g><g><g><g><g><path d="m411.96 512v-102.164c0-25.042-15.987-47.288-39.721-55.274l-71.838-24.172-27.561-4.226c-7.911-2.662-13.24-10.078-13.24-18.425v-31.656h-71.507v31.656c0 8.347-5.329 15.763-13.24 18.425l-84.399 28.399c-23.734 7.986-39.721 30.232-39.721 55.274v92.163c0 5.523 4.477 10 10 10z" fill="#f6df7f"/><g><path d="m293.057 353.013 49.182 16.549c23.734 7.986 39.721 30.233 39.721 55.274v87.164h30v-102.164c0-25.042-15.986-47.288-39.721-55.274l-71.838-24.172c-1.172 4.189-2.485 8.518-3.958 12.969-1.102 3.328-2.234 6.547-3.386 9.654z" fill="#efd06f"/></g><path d="m300.401 330.39c-4.483 16.616-12.606 39.522-27.92 63.944-13.11 20.907-27.44 36.465-39.145 47.363-1.132 1.054-2.869 1.079-4.029.056-11.582-10.215-26.102-25.227-39.257-45.892-16.08-25.261-23.82-49.071-27.758-65.471z" fill="#bee49d"/><path d="m300.401 330.39h-54.224c2.135 4.98 6.303 8.97 11.664 10.774l35.209 11.847c3.176-8.337 5.561-15.987 7.351-22.621z" fill="#a3d8a4"/><path d="m231.347 360.787c27.336 0 51.934-11.716 69.054-30.397l-27.561-4.226c-7.911-2.662-13.24-10.078-13.24-18.425v-31.656h-71.507v31.656c0 8.347-5.329 15.763-13.24 18.425l-12.561 4.226c17.12 18.681 41.718 30.397 69.055 30.397z" fill="#ce9775"/><path d="m257.84 341.163 20.6 6.932c8.191-4.776 15.594-10.758 21.96-17.705l-12.561-4.226c-3.566-1.334-10.164-5.028-12.284-12.399-.623-1.911-.956-3.939-.956-6.026v-31.656h-30v46.656c.001 8.347 5.33 15.762 13.241 18.424z" fill="#c6855b"/><path d="m411.96 512v-102.164c0-22.431-12.832-42.61-32.564-52.316l-25.588 28.553c-8.447 9.428-13.112 21.627-13.112 34.282v91.645z" fill="#bee49d"/><g><path d="m411.916 407.61c-.636-20.232-12.693-40.372-32.513-50.086-.002-.001-.005-.002-.007-.004l-19.437 21.688c13.624 10.849 22.001 27.504 22.001 45.627v87.165h30v-102.164c0-.745-.016-1.487-.044-2.226z" fill="#a3d8a4"/></g><path d="m60.733 512c-5.523 0-10-4.477-10-10v-92.164c0-22.431 12.832-42.61 32.564-52.316l25.588 28.553c8.447 9.428 13.112 21.627 13.112 34.282v91.645z" fill="#bee49d"/></g></g><g><path d="m231.347 308.833c-15.557 0-30.252 1.004-43.255-5.553-31.405-15.836-52.945-48.378-52.945-85.951v-58.57h192.401v58.57c0 37.573-21.54 70.115-52.945 85.951-13.004 6.557-43.256 5.553-43.256 5.553z" fill="#ce9775"/><path d="m297.547 158.759v58.57c.203 6.499.504 37.912-23.348 62.826-21.5 22.457-54.498 31.146-86.106 23.121 8.413 4.159 19.702 8.336 33.38 9.75 3.461.358 6.761.506 9.874.503 53.13 0 96.201-43.07 96.201-96.201v-58.57h-30.001z" fill="#c6855b"/><path d="m334.138 217.964h-6.59v-37.227h6.59c10.28 0 18.613 8.334 18.613 18.613 0 10.28-8.333 18.614-18.613 18.614z" fill="#ce9775"/><path d="m128.556 217.964h6.59v-37.227h-6.59c-10.28 0-18.613 8.334-18.613 18.613-.001 10.28 8.333 18.614 18.613 18.614z" fill="#c6855b"/><g><path d="m324.568 188.723h-186.443c-12.356 0-22.373-10.017-22.373-22.373 0-12.356 10.017-22.373 22.373-22.373h186.444c12.356 0 22.373 10.017 22.373 22.373 0 12.356-10.017 22.373-22.374 22.373z" fill="#efd06f"/><path d="m324.568 143.977h-30c12.356 0 22.373 10.017 22.373 22.373 0 12.356-10.017 22.373-22.373 22.373h30c12.356 0 22.373-10.017 22.373-22.373.001-12.357-10.016-22.373-22.373-22.373z" fill="#ebc56a"/><path d="m252.252 32.111h-41.81c-39.939 0-72.317 32.377-72.317 72.317v39.549h186.444v-39.549c-.001-39.94-32.378-72.317-72.317-72.317z" fill="#f6df7f"/><path d="m252.252 32.111h-30c39.94 0 72.317 32.377 72.317 72.317v39.549h30v-39.549c-.001-39.94-32.378-72.317-72.317-72.317z" fill="#efd06f"/><path d="m197.041 91.491v-63.109c0-11.533 9.349-20.882 20.882-20.882h26.848c11.533 0 20.882 9.349 20.882 20.882v63.109c0 2.209-1.791 4-4 4h-60.611c-2.21 0-4.001-1.791-4.001-4z" fill="#efd06f"/><path d="m244.771 7.5h-26.848c-.532 0-1.054.041-1.576.08 10.794.808 19.306 9.802 19.306 20.802v67.109h26c2.209 0 4-1.791 4-4v-63.109c-.001-11.533-9.35-20.882-20.882-20.882z" fill="#ebc56a"/></g></g></g><g><g><path d="m402.849 478.198v-84.627c0-1.498-.751-2.882-1.975-3.708-12.216-8.249-20.28-22.401-20.28-38.484 0-15.207 7.209-28.686 18.32-37.083 1.627-1.23 3.935-.026 3.935 2.042v25.089c0 4.371 3.467 7.914 7.745 7.914h20.677c4.277 0 7.745-3.543 7.745-7.914v-25.089c0-2.068 2.307-3.272 3.935-2.042 11.112 8.397 18.32 21.876 18.32 37.083 0 16.083-8.064 30.235-20.28 38.484-1.223.826-1.975 2.209-1.975 3.708v84.627z" fill="#ebf4ff"/><g><path d="m442.951 314.297c-1.627-1.23-3.935-.026-3.935 2.042v21.917c1.208 4.161 1.869 8.562 1.869 13.124 0 16.083-8.064 30.235-20.28 38.484-1.223.826-1.975 2.209-1.975 3.708v84.627h20.386v-84.627c0-1.499.751-2.882 1.975-3.708 12.217-8.249 20.28-22.401 20.28-38.484 0-15.207-7.208-28.686-18.32-37.083z" fill="#dceafc"/></g><path d="m433.629 504.5h-41.257c-6.396 0-11.582-5.185-11.582-11.582v-57.123c0-6.396 5.185-11.582 11.582-11.582h41.257c15.159 0 27.447 12.288 27.447 27.447v25.392c0 15.16-12.289 27.448-27.447 27.448z" fill="#ce9775"/><path d="m433.629 424.214h-30c15.159 0 27.447 12.289 27.447 27.447v25.392c0 15.159-12.288 27.447-27.447 27.447h30c15.159 0 27.447-12.288 27.447-27.447v-25.392c0-15.158-12.289-27.447-27.447-27.447z" fill="#c6855b"/></g></g></g><path d="m446.517 419.188v-24.042c13.963-10.06 22.25-26.297 22.25-43.766 0-16.903-7.963-33.003-21.285-43.054-3.02-2.292-7.003-2.668-10.401-.982-3.432 1.703-5.564 5.15-5.564 8.996v25.09c0 .288-.179.41-.25.41h-20.67c-.085 0-.25-.145-.25-.41v-25.09c0-3.84-2.126-7.285-5.548-8.99-3.391-1.689-7.374-1.32-10.402.965-12.179 9.198-19.855 23.424-21.1 38.688l-83.069-27.952c-4.863-1.635-8.131-6.181-8.131-11.311v-.006c29.35-16.542 49.886-46.957 52.634-82.289 13.857-.247 25.516-12.186 25.516-26.095 0-7.649-3.402-14.781-8.963-19.655 2.016-4.02 3.158-8.55 3.158-13.345 0-13.883-9.52-25.584-22.375-28.92v-33c0-36.294-24.441-67.743-58.94-77.039-.525-15.192-13.039-27.391-28.356-27.391h-26.848c-15.318 0-27.832 12.199-28.357 27.391-34.499 9.296-58.94 40.746-58.94 77.039v33c-12.855 3.335-22.375 15.036-22.375 28.92 0 4.795 1.142 9.325 3.158 13.345-5.561 4.874-8.963 12.006-8.963 19.655 0 13.928 11.524 25.861 25.516 26.095 2.748 35.332 23.284 65.747 52.634 82.289v.006c0 5.13-3.268 9.676-8.132 11.312l-84.4 28.4c-27.338 9.251-44.328 33.866-44.831 62.384v94.664c0 4.142 3.358 7.5 7.5 7.5h.003c4.142 0 7.5-3.358 7.5-7.5v-94.66c.337-17.224 8.802-33.468 23.488-42.836l21.575 24.074c7.221 8.06 11.198 18.457 11.198 29.277v84.145c0 4.142 3.358 7.5 7.5 7.5s7.5-3.358 7.5-7.5v-22.986h94.349v22.986c0 4.142 3.358 7.5 7.5 7.5s7.5-3.358 7.5-7.5v-22.986h94.35v22.986c0 4.142 3.358 7.5 7.5 7.5s7.5-3.358 7.5-7.5v-84.14c0-10.828 3.976-21.228 11.195-29.284l17.559-19.59c3.731 9.396 10.038 17.646 18.396 23.661v21.567c-11.624-1.279-22.056 7.295-22.057 19.082v57.123c0 10.521 8.56 19.082 19.082 19.082h41.257c19.27 0 34.947-15.677 34.947-34.947v-25.392c.001-14.719-9.151-27.333-22.058-32.474zm-101.27-219.838c0 5.676-4.541 10.636-10.2 11.066v-16.094c2.274-.855 4.417-1.979 6.391-3.334 2.363 2.073 3.809 5.107 3.809 8.362zm-217.601 11.066c-5.674-.432-10.2-5.361-10.2-11.066 0-3.255 1.446-6.289 3.809-8.363 1.973 1.355 4.116 2.479 6.391 3.334zm-4.395-44.066c0-8.294 6.72-14.831 14.943-14.874h99.53c4.142 0 7.5-3.358 7.5-7.5s-3.358-7.5-7.5-7.5h-92.098v-32.046c0-28.075 18.002-52.58 43.915-61.367v44.98c0 4.142 3.358 7.5 7.5 7.5s7.5-3.358 7.5-7.5v-59.661c0-7.379 6.003-13.382 13.382-13.382h26.848c7.379 0 13.382 6.003 13.382 13.382v59.662c0 4.142 3.358 7.5 7.5 7.5s7.5-3.358 7.5-7.5v-44.98c25.913 8.787 43.915 33.292 43.915 61.367v32.046h-44.342c-4.142 0-7.5 3.358-7.5 7.5s3.358 7.5 7.5 7.5c.09 0 51.792.002 51.877.002 8.186.018 14.84 6.682 14.84 14.872 0 8.201-6.672 14.873-14.874 14.873h-186.444c-8.201-.001-14.874-6.673-14.874-14.874zm19.395 50.98v-21.107h177.4v21.107c0 48.909-39.791 88.7-88.7 88.7s-88.7-39.791-88.7-88.7zm52.117 97.034c11.382 4.306 23.712 6.666 36.583 6.666s25.201-2.36 36.583-6.666c2.287 9.031 9.126 16.345 18.287 19.164-15.348 12.663-34.784 19.758-54.871 19.758s-39.523-7.095-54.871-19.758c9.105-2.909 16.022-10.097 18.289-19.164zm36.448 119.013c-9.979-9.16-19.073-19.302-27.07-30.196-2.452-3.339-7.145-4.059-10.484-1.608s-4.059 7.145-1.608 10.484c9.308 12.681 20.007 24.404 31.797 34.867v19.59h-94.349v-46.159c0-14.519-5.336-28.471-15.027-39.287l-18.367-20.495 60.969-20.516c3.962 14.19 9.306 27.984 15.965 41.096 1.897 3.735 6.454 5.134 10.083 3.291 3.693-1.875 5.167-6.39 3.291-10.083-3.638-7.164-6.857-14.546-9.645-22.092 16.158 10.344 35.109 16.017 54.58 16.017 19.143 0 37.78-5.489 53.757-15.504-5.151 13.067-11.496 25.636-18.977 37.567-9.839 15.693-21.573 30.151-34.915 43.028zm117.01-52.313c-9.688 10.813-15.024 24.768-15.024 39.295v46.154h-94.35v-19.712c15.369-14.376 28.825-30.681 39.988-48.484 11.409-18.195 20.334-37.782 26.6-58.323l61.153 20.577zm39.876-29.684c0-8.238 2.607-16.207 7.25-22.747v12.797c0 8.497 6.841 15.41 15.25 15.41h20.67c8.409 0 15.25-6.913 15.25-15.41v-12.881c4.685 6.516 7.25 14.427 7.25 22.831 0 13.026-6.346 25.087-16.998 32.279-3.289 2.237-5.252 5.942-5.252 9.911v23.145h-21.17v-23.145c0-3.969-1.963-7.674-5.273-9.926-10.631-7.177-16.977-19.238-16.977-32.264zm65.479 125.673c0 10.999-8.948 19.947-19.947 19.947h-41.257c-2.25 0-4.082-1.831-4.082-4.082v-57.123c0-2.25 1.831-4.082 4.082-4.082h41.257c10.999 0 19.947 8.948 19.947 19.947zm-204.321-197.519c3.377-2.399 4.169-7.081 1.77-10.458-2.399-3.376-7.081-4.17-10.458-1.77-1.462 1.038-4.529 2.802-8.649 2.95-4.663.168-8.141-1.78-9.8-2.956-3.38-2.394-8.061-1.597-10.456 1.784-2.395 3.38-1.596 8.061 1.784 10.456 3.074 2.178 9.392 5.727 17.907 5.727 7.46 0 14.395-3.242 17.902-5.733zm-61.786-74.866c-4.142 0-7.5 3.358-7.5 7.5v15.523c0 4.142 3.358 7.5 7.5 7.5s7.5-3.358 7.5-7.5v-15.523c0-4.142-3.358-7.5-7.5-7.5zm87.756 30.524c4.142 0 7.5-3.358 7.5-7.5v-15.523c0-4.142-3.358-7.5-7.5-7.5s-7.5 3.358-7.5 7.5v15.523c0 4.142 3.358 7.5 7.5 7.5z"/></g></svg>