<?xml version="1.0" encoding="UTF-8"?>
<svg xmlns="http://www.w3.org/2000/svg" viewBox="0 0 512 512" width="512" height="512"><g id="filled_outline" data-name="filled outline"><circle cx="256" cy="272" r="200" style="fill:#5ebef7"/><circle cx="256" cy="272" r="168" style="fill:#eae9e4"/><circle cx="400" cy="416" r="64" style="fill:#ee9d0d"/><path d="M277.655,282.341A23.99,23.99,0,0,0,264,249.376V208a8,8,0,0,0-16,0v41.376a24,24,0,1,0,18.341,44.279l48,48a8,8,0,0,0,11.314-11.314ZM248,272a8,8,0,1,1,8,8A8.009,8.009,0,0,1,248,272Z"/><path d="M444.7,359.616A205.834,205.834,0,0,0,464,272c0-114.691-93.309-208-208-208S48,157.309,48,272s93.309,208,208,208a205.758,205.758,0,0,0,87.611-19.309A71.958,71.958,0,1,0,444.7,359.616ZM256,464C150.131,464,64,377.869,64,272S150.131,80,256,80s192,86.131,192,192a189.99,189.99,0,0,1-16.983,79.034,71.438,71.438,0,0,0-15.192-5.26A176.555,176.555,0,0,0,432,272c0-97.047-78.953-176-176-176S80,174.953,80,272s78.953,176,176,176a176.53,176.53,0,0,0,73.773-16.177,71.494,71.494,0,0,0,5.26,15.192A189.9,189.9,0,0,1,256,464Zm99.094-104.219L346.51,351.2A8,8,0,1,0,335.2,362.509l8.584,8.585a71.623,71.623,0,0,0-15.752,43.812A160.346,160.346,0,0,1,256,432c-88.224,0-160-71.775-160-160s71.776-160,160-160,160,71.775,160,160a160.36,160.36,0,0,1-17.1,72.028A71.619,71.619,0,0,0,355.094,359.781ZM400,472a56,56,0,1,1,56-56A56.063,56.063,0,0,1,400,472Z"/><path d="M424,408H408V392a8,8,0,0,0-16,0v16H376a8,8,0,0,0,0,16h16v16a8,8,0,0,0,16,0V424h16a8,8,0,0,0,0-16Z"/><path d="M256,160a8,8,0,0,0,8-8V136a8,8,0,0,0-16,0v16A8,8,0,0,0,256,160Z"/><path d="M165.491,170.177a8,8,0,0,0-11.315,11.312L165.49,192.8A8,8,0,1,0,176.8,181.491Z"/><path d="M136,264H120a8,8,0,0,0,0,16h16a8,8,0,0,0,0-16Z"/><path d="M165.49,351.2l-11.314,11.315a8,8,0,1,0,11.315,11.312L176.8,362.509A8,8,0,1,0,165.49,351.2Z"/><path d="M256,384a8,8,0,0,0-8,8v16a8,8,0,0,0,16,0V392A8,8,0,0,0,256,384Z"/><path d="M400,272a8,8,0,0,0-8-8H376a8,8,0,0,0,0,16h16A8,8,0,0,0,400,272Z"/><path d="M346.509,170.177,335.2,181.491A8,8,0,0,0,346.51,192.8l11.314-11.315a8,8,0,0,0-11.315-11.312Z"/><path d="M56,100H68v12a8,8,0,0,0,16,0V100H96a8,8,0,0,0,0-16H84V72a8,8,0,0,0-16,0V84H56a8,8,0,0,0,0,16Z"/><path d="M480,108H468V96a8,8,0,0,0-16,0v12H440a8,8,0,0,0,0,16h12v12a8,8,0,0,0,16,0V124h12a8,8,0,0,0,0-16Z"/><path d="M400,68h12V80a8,8,0,0,0,16,0V68h12a8,8,0,0,0,0-16H428V40a8,8,0,0,0-16,0V52H400a8,8,0,0,0,0,16Z"/></g></svg>
