<svg id="_x31__x2C_5" height="512" viewBox="0 0 24 24" width="512" xmlns="http://www.w3.org/2000/svg"><path d="m.958 15.75h17v4.5h-17z" fill="#90a4ae"/><path d="m5.5.75h5v15h-5z" fill="#607d8b"/><path d="m17.506 15.581c-2.664 0-4.386.691-5.2 1.115l-.077.347c0 1.558.5 3.486 1.74 4.778.826.861 1.981 1.439 3.536 1.439 1.556 0 2.711-.583 3.536-1.439 1.232-1.278 1.729-3.165 1.729-4.633 0-.033 0-.145 0-.145l-.077-.349c-.811-.424-2.526-1.113-5.187-1.113z" fill="#ffcc80"/><path d="m22.694 16.694-.62-2.808c-.16-.724-.721-1.291-1.443-1.457l-2.698-.62c-.282-.065-.575-.065-.857 0l-2.708.621c-.722.166-1.284.733-1.444 1.457l-.62 2.809c.814-.424 2.536-1.115 5.2-1.115 2.663 0 4.378.689 5.19 1.113z" fill="#f44336"/><path d="m19.776 19.001c-.414 0-.75-.336-.75-.75s.336-.75.75-.75.75.337.75.75-.336.75-.75.75z"/><path d="m15.344 18.939c-.396 0-.719-.322-.719-.719 0-.396.322-.719.719-.719s.719.323.719.719c-.001.397-.323.719-.719.719z"/><path d="m17.506 24.01c-1.619 0-3.029-.577-4.077-1.67-1.221-1.271-1.949-3.251-1.949-5.297 0-.063.008-.123.021-.181l.692-3.137c.222-1.003 1.01-1.799 2.009-2.027l2.707-.621c.391-.088.802-.088 1.192 0l2.698.621c.998.229 1.785 1.024 2.007 2.025l.696 3.158c.012.053.018.106.018.161v.145c0 1.52-.509 3.671-1.938 5.153-1.052 1.093-2.462 1.67-4.076 1.67zm-4.526-6.888c.018 1.291.428 3.031 1.53 4.179.77.803 1.777 1.209 2.995 1.209 1.215 0 2.223-.407 2.996-1.21 1.12-1.161 1.519-2.886 1.519-4.112v-.063l-.679-3.078c-.097-.438-.441-.787-.878-.888l-2.698-.62c-.17-.037-.35-.038-.521.001l-2.707.621c-.438.1-.782.448-.879.888z"/><path d="m17.506 22.006c-.742 0-1.439-.289-1.964-.815-.292-.293-.292-.768.002-1.061.293-.291.768-.293 1.061.002.48.482 1.322.482 1.803 0 .292-.295.767-.293 1.061-.002.294.293.294.768.002 1.061-.526.526-1.223.815-1.965.815z"/><path d="m23.249 17.771c-.156 0-.314-.049-.449-.15-.015-.01-1.803-1.29-5.294-1.29-3.493 0-5.293 1.281-5.311 1.294-.333.242-.802.172-1.047-.159-.245-.332-.178-.798.152-1.045.087-.065 2.174-1.59 6.205-1.59s6.108 1.525 6.194 1.591c.331.249.398.719.149 1.05-.146.195-.37.299-.599.299z"/><path d="m10 21h-9.25c-.414 0-.75-.336-.75-.75v-4.5c0-.414.336-.75.75-.75h8.25c.414 0 .75.336.75.75s-.336.75-.75.75h-7.5v3h8.5c.414 0 .75.336.75.75s-.336.75-.75.75z"/><path d="m5.5 16.5c-.414 0-.75-.336-.75-.75v-15c0-.414.336-.75.75-.75h5c.414 0 .75.336.75.75v12.25c0 .414-.336.75-.75.75s-.75-.336-.75-.75v-11.5h-3.5v14.25c0 .414-.336.75-.75.75z"/><path d="m2.75 16.5c-.414 0-.75-.336-.75-.75v-12.25c0-.414.336-.75.75-.75h2.75c.414 0 .75.336.75.75s-.336.75-.75.75h-2v11.5c0 .414-.336.75-.75.75z"/><path d="m5.5 7.25h-2.75c-.414 0-.75-.336-.75-.75s.336-.75.75-.75h2.75c.414 0 .75.336.75.75s-.336.75-.75.75z"/><path d="m5.5 10.25h-2.75c-.414 0-.75-.336-.75-.75s.336-.75.75-.75h2.75c.414 0 .75.336.75.75s-.336.75-.75.75z"/><path d="m5.5 13.25h-2.75c-.414 0-.75-.336-.75-.75s.336-.75.75-.75h2.75c.414 0 .75.336.75.75s-.336.75-.75.75z"/><path d="m10.5 13.25h-1.75c-.414 0-.75-.336-.75-.75s.336-.75.75-.75h1.75c.414 0 .75.336.75.75s-.336.75-.75.75z"/><path d="m10.5 10.25h-1.75c-.414 0-.75-.336-.75-.75s.336-.75.75-.75h1.75c.414 0 .75.336.75.75s-.336.75-.75.75z"/><path d="m10.5 7.25h-1.75c-.414 0-.75-.336-.75-.75s.336-.75.75-.75h1.75c.414 0 .75.336.75.75s-.336.75-.75.75z"/><path d="m10.5 4.25h-1.75c-.414 0-.75-.336-.75-.75s.336-.75.75-.75h1.75c.414 0 .75.336.75.75s-.336.75-.75.75z"/></svg>