<svg id="Layer_1" enable-background="new 0 0 512 512" height="512" viewBox="0 0 512 512" width="512" xmlns="http://www.w3.org/2000/svg"><g><g><g><g><g><g><path d="m28.001 512c-5.523 0-10-4.477-10-10v-113.517c0-26.722 17.099-50.462 42.484-58.984l19.778-6.64 19.669-1.909 12.418-8.863 38.406-12.893c8.462-2.841 14.161-10.754 14.161-19.661v-33.781h92.525v33.781c0 8.907 3.831 25.306 12.292 28.147l40.275 4.407 51.865 17.411c25.385 8.522 42.484 32.262 42.484 58.984v113.518c0 5.523-4.477 10-10 10h-52.262l-130.917-15-130.916 15z" fill="#f8f5f9"/></g></g><g><path d="m246.052 315.687 85.822 28.811c25.385 8.522 42.484 32.262 42.484 58.984v108.518h20c5.523 0 10-4.477 10-10v-113.518c0-26.722-17.099-50.462-42.484-58.984l-90.271-30.304c-2.174-.73-4.165-1.793-5.929-3.128z" fill="#dbd9ec"/></g><g><g><path d="m150.755 299.194c8.462-2.841 14.161-10.754 14.161-19.661v-33.781h77.525v33.781c0 8.907 20.7 16.821 29.161 19.661l-60.424 43.138z" fill="#f1ccbd"/></g></g><path d="m257.442 279.533v-33.781h-30v48.781c0 8.907 5.7 16.821 14.161 19.661l6.114 2.052 23.886-17.052c-5.13-1.723-9.475-5.486-11.912-10.275-1.448-2.846-2.249-6.046-2.249-9.386z" fill="#eaad9c"/><g fill="#e2dfe3"><path d="m167.293 327.961c1.465 1.464 3.385 2.196 5.304 2.196s3.839-.732 5.304-2.196c2.929-2.93 2.929-7.678 0-10.607l-21.26-21.26c-1.75 1.317-3.727 2.375-5.885 3.1l-9.156 3.073z"/><path d="m250.026 329.82c1.919 0 3.839-.732 5.304-2.196l25.375-25.375-9.101-3.055c-2.176-.73-4.165-1.801-5.925-3.133l-20.955 20.955c-2.929 2.93-2.929 7.678 0 10.607 1.464 1.465 3.383 2.197 5.302 2.197z"/></g><path d="m80.263 512v-68.594c0-3.982 1.195-7.861 3.411-11.169 5.944-8.873 14.459-24.831 15.841-46.221 2.156-33.363-14.529-56.925-19.252-63.156 10.696-3.591 21.391-7.181 32.087-10.772l2.622 8.341c17.904 56.963 51.198 107.873 96.208 147.109 45.01-39.236 78.304-90.145 96.208-147.109l2.622-8.341c10.696 3.591 21.391 7.181 32.087 10.772-4.723 6.231-21.408 29.793-19.252 63.156 1.382 21.39 9.897 37.348 15.841 46.221 2.216 3.308 3.411 7.187 3.411 11.169v68.594z" fill="#4f6d8f"/><g><path d="m115.259 111.954 191.841 15v-75.206c0-24.438-19.856-44.248-44.35-44.248h-103.142c-24.494 0-44.35 19.81-44.35 44.248v60.206z" fill="#c6855b"/><path d="m262.75 7.5h-30c24.494 0 44.35 19.811 44.35 44.248v72.861l30 2.346v-75.207c0-24.437-19.856-44.248-44.35-44.248z" fill="#c17e4e"/><path d="m313.714 169.236h-6.614v-37.033h6.614c10.226 0 18.517 8.29 18.517 18.517-.001 10.225-8.291 18.516-18.517 18.516z" fill="#f1ccbd"/><path d="m212.139 275.594c16.555 0 31.171 1.065 44.762-6.302 29.901-16.206 50.199-47.813 50.199-84.15v-73.188c-16.51 1.992-43.073 3.084-74.002-5.224-22.601-6.071-40.307-15.221-52.695-22.974-1.513-.947-3.468-.784-4.787.418-5.775 5.263-13.912 11.55-24.605 16.926-14.137 7.107-27.07 9.769-35.752 10.855v73.188c0 36.117 20.053 67.561 49.657 83.854 13.719 7.549 47.223 6.597 47.223 6.597z" fill="#f1ccbd"/><g><path d="m277.1 113.261v71.882c.203 6.491.506 37.889-23.267 62.483-22.117 22.881-56.517 31.023-88.916 21.369 9.261 4.955 21.844 9.956 37.173 11.421 3.161.302 6.197.431 9.09.427 52.975 0 95.92-42.846 95.92-95.7v-73.188c-7.903.953-18.114 1.697-30 1.306z" fill="#eaad9c"/></g><g><g><path d="m167.429 188.029c-4.143 0-7.5-3.357-7.5-7.5v-15.442c0-4.143 3.357-7.5 7.5-7.5s7.5 3.357 7.5 7.5v15.442c0 4.143-3.358 7.5-7.5 7.5z" fill="#455e7e"/></g><g><path d="m254.93 188.029c-4.143 0-7.5-3.357-7.5-7.5v-15.442c0-4.143 3.357-7.5 7.5-7.5s7.5 3.357 7.5 7.5v15.442c0 4.143-3.358 7.5-7.5 7.5z" fill="#455e7e"/></g></g><g><path d="m211.174 237.843c-.363 0-.729-.006-1.101-.02-7.6-.271-13.306-3.241-16.754-5.684-3.38-2.395-4.18-7.075-1.785-10.455s7.074-4.181 10.455-1.785c1.458 1.032 4.517 2.786 8.621 2.934 4.605.162 8.11-1.77 9.765-2.938 3.383-2.392 8.063-1.587 10.453 1.795 2.392 3.382 1.588 8.063-1.795 10.453-3.065 2.169-9.367 5.7-17.859 5.7z" fill="#eaad9c"/></g><path d="m108.645 169.236h6.614v-37.033h-6.614c-10.226 0-18.517 8.29-18.517 18.517 0 10.225 8.29 18.516 18.517 18.516z" fill="#eaad9c"/></g></g><path d="m203.68 460.781v51.219h15v-51.22c-2.464 2.287-4.961 4.543-7.5 6.757-2.54-2.213-5.036-4.469-7.5-6.756z" fill="#455e7e"/><g><path d="m211.179 342.332 39.962 12.999c2.527.822 5.12-1.062 5.12-3.719v-33.225c0-2.657-2.593-4.541-5.12-3.719l-39.962 12.999-39.962-12.999c-2.527-.822-5.12 1.062-5.12 3.719v33.225c0 2.657 2.593 4.541 5.12 3.719.001 0 39.962-12.999 39.962-12.999z" fill="#4f6d8f"/><circle cx="211.179" cy="335" fill="#455e7e" r="17.109"/></g><g fill="#e2dfe3"><circle cx="211.179" cy="376" r="7.5"/><circle cx="211.179" cy="406" r="7.5"/><circle cx="211.179" cy="436" r="7.5"/></g></g><g><g><path d="m259.73 437.752h224.731c5.266 0 9.534-4.269 9.534-9.534v-21.792c0-5.266-4.269-9.534-9.534-9.534h-224.731c-5.266 0-9.534 4.269-9.534 9.534v21.792c0 5.265 4.268 9.534 9.534 9.534z" fill="#cfcce3"/><path d="m484.461 396.891h-30c5.266 0 9.534 4.269 9.534 9.534v21.792c0 5.265-4.269 9.534-9.534 9.534h30c5.266 0 9.534-4.269 9.534-9.534v-21.792c0-5.265-4.268-9.534-9.534-9.534z" fill="#bab4dc"/><circle cx="372.095" cy="284.526" fill="#dbd8ea" r="23.154"/><path d="m372.095 294.741c56.04 0 101.47 45.429 101.47 101.47v.681h-202.939v-.681c0-56.041 45.429-101.47 101.469-101.47z" fill="#dbd8ea"/><path d="m372.095 294.741c-5.097 0-10.105.38-15 1.106 48.927 7.25 86.47 49.421 86.47 100.364v.681h30v-.681c0-56.041-45.43-101.47-101.47-101.47z" fill="#cfcce3"/></g><path d="m351.764 466.583h40.662c9.537 0 17.269-7.731 17.269-17.269v-19.473c0-3.822-3.099-6.921-6.921-6.921h-61.356c-3.822 0-6.921 3.099-6.921 6.921v19.473c-.001 9.538 7.73 17.269 17.267 17.269z" fill="#f1ccbd"/><path d="m402.773 422.92h-30c3.823 0 6.921 3.099 6.921 6.921v19.473c0 9.537-7.731 17.269-17.269 17.269h30c9.537 0 17.269-7.731 17.269-17.269v-19.473c.001-3.822-3.098-6.921-6.921-6.921z" fill="#eaad9c"/></g></g><path d="m254.93 188.029c4.143 0 7.5-3.357 7.5-7.5v-15.442c0-4.143-3.357-7.5-7.5-7.5s-7.5 3.357-7.5 7.5v15.442c0 4.143 3.357 7.5 7.5 7.5zm-43.751 240.471c-4.142 0-7.5 3.358-7.5 7.5s3.358 7.5 7.5 7.5 7.5-3.358 7.5-7.5-3.357-7.5-7.5-7.5zm273.286-39.11h-3.621c-1.097-17.595-6.419-34.657-15.575-49.716-2.152-3.541-6.767-4.664-10.305-2.512-3.539 2.151-4.664 6.765-2.512 10.305 7.727 12.709 12.293 27.081 13.367 41.923h-187.448c3.506-48.644 44.203-87.149 93.724-87.149 21.574 0 41.862 7.109 58.669 20.561 3.236 2.59 7.954 2.065 10.542-1.169s2.064-7.954-1.169-10.542c-11.317-9.057-24.356-15.695-38.195-19.641.521-2.256.802-4.574.802-6.918 0-16.906-13.75-30.66-30.65-30.66s-30.649 13.754-30.649 30.66c0 2.328.277 4.628.791 6.869-10.66 3.041-20.651 7.677-29.713 13.618l-38.529-12.938c-5.412-1.816-9.048-6.86-9.048-12.55v-6.261c29.753-18.142 49.654-50.858 49.654-88.126v-8.43c13.936-.469 25.131-11.946 25.131-25.994s-11.195-25.525-25.131-25.994v-72.978c0-28.534-23.26-51.748-51.85-51.748h-103.142c-28.59 0-51.85 23.214-51.85 51.748v72.977c-13.936.469-25.131 11.946-25.131 25.994s11.195 25.525 25.131 25.994v8.429c0 37.27 19.902 69.986 49.656 88.128v6.26c0 5.689-3.636 10.733-9.048 12.55l-90.266 30.31c-28.468 9.552-47.595 36.112-47.595 66.091v116.019c0 4.143 3.357 7.5 7.5 7.5s7.5-3.357 7.5-7.5v-116.02c0-23.525 15.017-44.371 37.368-51.87l14.485-4.864c6.584 9.997 16.266 29.174 14.672 53.791-1.223 18.957-8.608 33.593-14.578 42.517-3.066 4.559-4.688 9.869-4.688 15.356v61.09c0 4.143 3.357 7.5 7.5 7.5s7.5-3.357 7.5-7.5v-61.09c0-2.494.737-4.909 2.144-7 7.004-10.469 15.653-27.625 17.091-49.906 1.703-26.305-7.53-47.285-15.013-59.668l15.504-5.205c17.89 57.609 51.163 109.206 96.189 149.286v33.583c0 4.143 3.357 7.5 7.5 7.5s7.5-3.357 7.5-7.5v-33.593c10.515-9.366 20.457-19.428 29.687-30.035 3.017 2.712 6.993 4.378 11.359 4.378h67.271v4.064c0 6.995 2.92 13.317 7.599 17.826v37.36c0 4.143 3.357 7.5 7.5 7.5s7.5-3.357 7.5-7.5v-30.518c3.278.316 45.822-.043 47.261-.304v30.822c0 4.143 3.357 7.5 7.5 7.5s7.5-3.357 7.5-7.5v-39.852c3.338-4.221 5.339-9.546 5.339-15.333v-4.064h67.271c9.391 0 17.03-7.64 17.03-17.03v-21.79c-.001-9.397-7.641-17.041-17.031-17.041zm-112.37-120.52c8.63 0 15.65 7.025 15.65 15.66 0 1.292-.166 2.566-.474 3.801-5.013-.709-10.082-1.091-15.177-1.091-5.152 0-10.219.368-15.182 1.063-.303-1.226-.467-2.49-.467-3.773 0-8.634 7.021-15.66 15.65-15.66zm-57.495-129.133c5.662.452 10.131 5.205 10.131 10.981s-4.469 10.529-10.131 10.981zm-206.841 21.963c-5.662-.452-10.131-5.205-10.131-10.981s4.469-10.529 10.131-10.981zm15 23.442v-66.754c11.008-2.008 21.617-5.558 31.621-10.587 8.738-4.394 16.896-9.87 24.288-16.303 11.095 6.743 22.852 12.425 34.984 16.905 3.888 1.435 8.199-.551 9.634-4.437 1.436-3.886-.551-8.199-4.437-9.634-11.992-4.43-23.589-10.127-34.467-16.934-4.352-2.726-10.035-2.219-13.817 1.23-6.898 6.284-14.61 11.59-22.924 15.769-7.903 3.974-16.243 6.884-24.883 8.699v-51.35c0-20.263 16.53-36.748 36.85-36.748h103.142c20.319 0 36.85 16.485 36.85 36.748v53.438c-16.058 1.371-32.173.686-47.998-2.052-4.079-.701-7.962 2.031-8.669 6.112-.705 4.082 2.031 7.963 6.112 8.669 16.673 2.883 33.64 3.661 50.555 2.323v64.904c0 48.634-39.665 88.2-88.42 88.2-48.756.003-88.421-39.564-88.421-88.198zm111.979 142.754 14.026-4.563v23.336l-14.026-4.563c.68-2.251 1.05-4.635 1.05-7.104s-.37-4.856-1.05-7.106zm-9.121-12.806c-4.059-2.951-9.046-4.698-14.437-4.698s-10.378 1.747-14.437 4.698l-23.206-7.551c-1.883-.612-3.87-.695-5.768-.315l-5.798-5.798c6.154-4.998 10.029-12.445 10.394-20.632 11.992 4.863 25.094 7.55 38.815 7.55s26.824-2.687 38.816-7.55c.364 8.168 4.222 15.6 10.352 20.598l-5.819 5.819c-1.879-.365-3.842-.277-5.703.328zm-4.829 19.91c0 5.298-4.311 9.608-9.608 9.608-5.299 0-9.609-4.311-9.609-9.608s4.311-9.608 9.609-9.608 9.608 4.31 9.608 9.608zm-33.168 7.105-14.026 4.564v-23.338l14.026 4.564c-.68 2.251-1.05 4.635-1.05 7.105s.37 4.854 1.05 7.105zm55.075 64.325v17.927c-9.657 11.745-20.224 22.868-31.521 33.141-41.822-38.018-72.722-86.564-89.462-140.644l25.808-8.666 11.075 11.075v32.348c0 3.641 1.76 7.093 4.707 9.232 2.954 2.145 6.787 2.741 10.233 1.619l23.207-7.551c4.059 2.951 9.047 4.698 14.437 4.698s10.379-1.747 14.437-4.698l23.206 7.552c3.446 1.12 7.28.526 10.234-1.619 2.947-2.14 4.707-5.591 4.707-9.232v-32.422l11.02-11.02 23.558 7.911c-20.065 18.486-33.201 44.384-34.997 73.309h-3.62c-9.389 0-17.029 7.644-17.029 17.04zm159.499 42.884c0 5.387-4.382 9.769-9.769 9.769h-40.661c-5.387 0-9.769-4.382-9.769-9.769v-18.894h60.198v18.894zm84.301-21.094c0 1.119-.911 2.03-2.03 2.03h-67.271c.262-8.088-6.349-14.827-14.421-14.83h-61.356c-8.073-.013-14.665 6.746-14.421 14.83h-67.271c-1.119 0-2.03-.911-2.03-2.03v-21.79c0-1.125.911-2.04 2.03-2.04h224.739c1.119 0 2.03.915 2.03 2.04v21.79zm-275.316-29.72c-4.142 0-7.5 3.358-7.5 7.5s3.358 7.5 7.5 7.5 7.5-3.358 7.5-7.5-3.357-7.5-7.5-7.5zm-43.75-240.913c-4.143 0-7.5 3.357-7.5 7.5v15.442c0 4.143 3.357 7.5 7.5 7.5s7.5-3.357 7.5-7.5v-15.442c0-4.143-3.358-7.5-7.5-7.5zm43.75 210.913c-4.142 0-7.5 3.358-7.5 7.5s3.358 7.5 7.5 7.5 7.5-3.358 7.5-7.5-3.357-7.5-7.5-7.5zm19.649-146.81c-2.39-3.382-7.07-4.187-10.453-1.795-1.654 1.168-5.159 3.1-9.765 2.938-4.104-.147-7.163-1.901-8.621-2.934-3.381-2.396-8.061-1.595-10.455 1.785s-1.595 8.061 1.785 10.455c3.297 2.336 10.426 5.703 17.854 5.703 8.492 0 14.794-3.531 17.859-5.699 3.384-2.39 4.188-7.071 1.796-10.453z"/></g></svg>